<svg xmlns="http://www.w3.org/2000/svg" width="1024" height="1024" viewBox="0 0 1024 1024"><defs>
  <linearGradient id="arcGrad" x1="0.12" y1="0.05" x2="0.85" y2="0.95">
    <stop offset="0"   stop-color="#DC8C57"/>
    <stop offset="0.45" stop-color="#B96D43"/>
    <stop offset="1"   stop-color="#9A4F2C"/>
  </linearGradient>
  <linearGradient id="tileGrad" x1="0" y1="0" x2="0" y2="1">
    <stop offset="0"   stop-color="#F6D079"/>
    <stop offset="1"   stop-color="#E2A93E"/>
  </linearGradient>
  <linearGradient id="tileGradHi" x1="0" y1="0" x2="0" y2="1">
    <stop offset="0"   stop-color="#FFE9B0"/>
    <stop offset="1"   stop-color="#E2A93E"/>
  </linearGradient>
  <radialGradient id="forgeGlow" cx="0.62" cy="0.42" r="0.7">
    <stop offset="0" stop-color="#B96D43" stop-opacity="0.30"/>
    <stop offset="0.55" stop-color="#B96D43" stop-opacity="0.0"/>
  </radialGradient>
  <linearGradient id="sheen" x1="0" y1="0" x2="0" y2="1">
    <stop offset="0" stop-color="#FFD9A8" stop-opacity="0.7"/>
    <stop offset="0.5" stop-color="#FFD9A8" stop-opacity="0.0"/>
  </linearGradient>
  <filter id="tileShadow" x="-40%" y="-40%" width="180%" height="200%">
    <feDropShadow dx="0" dy="6" stdDeviation="9" flood-color="#000000" flood-opacity="0.40"/>
  </filter>
<linearGradient id="iconTile" x1="0" y1="0" x2="1" y2="1"><stop offset="0" stop-color="#1b2233"/><stop offset="1" stop-color="#080B12"/></linearGradient><linearGradient id="goldText" x1="0" y1="0" x2="0" y2="1"><stop offset="0" stop-color="#F6D079"/><stop offset="1" stop-color="#CE8A57"/></linearGradient></defs><g>
  
  <path d="M 712.50 349.64 A 258.00 258.00 0 1 0 712.50 674.36" fill="none" stroke="#E2A93E" stroke-width="75.00" stroke-linecap="round"/>
  
  <rect x="347.00" y="572.00" width="75.00" height="75.00" rx="19.50" ry="19.50" fill="#E2A93E" />
  <rect x="429.50" y="492.84" width="108.00" height="108.00" rx="28.08" ry="28.08" fill="#E2A93E" />
  <rect x="545.00" y="383.00" width="153.00" height="153.00" rx="39.78" ry="39.78" fill="#E2A93E" />
  
</g></svg>